<svg width="53" height="63" viewBox="0 0 53 63" fill="none" xmlns="http://www.w3.org/2000/svg">
<path d="M35.8429 20.3849C41.4618 20.3849 46.0354 15.8113 46.0354 10.1924C46.0354 4.57353 41.4618 0 35.8429 0C30.224 0 25.6505 4.57353 25.6505 10.1924C25.6505 15.8113 30.224 20.3849 35.8429 20.3849ZM27.4146 9.60441C27.5452 7.775 28.2639 6.07626 29.44 4.76954L30.616 5.94559L31.5307 5.03088L30.3547 3.85483C31.8574 2.61345 33.7522 1.82941 35.8429 1.82941C37.9337 1.82941 39.8284 2.61345 41.3312 3.85483L40.1551 5.03088L41.0698 5.94559L42.2459 4.76954C43.3566 6.07626 44.0753 7.775 44.2713 9.60441H42.5725V10.9111H44.2713C44.1406 12.7405 43.4219 14.4393 42.2459 15.746L41.0698 14.57L40.0898 15.4193L41.2658 16.5954C39.9591 17.7061 38.2604 18.4248 36.4309 18.6208V16.9221H35.1242V18.6208C33.2948 18.4901 31.5961 17.7714 30.2893 16.5954L31.4654 15.4193L30.5507 14.5046L29.3746 15.6807C28.2639 14.3739 27.5452 12.6752 27.3492 10.8458H29.048V9.53908H27.4146V9.60441Z" fill="black"/>
<path d="M40.7431 9.60449H36.4963V3.46289H35.1895V10.8459H40.7431V9.60449Z" fill="black"/>
<path d="M16.6341 40.443C16.3727 37.1109 16.0461 33.3867 15.8501 31.1653C16.1114 31.3613 16.3727 31.5573 16.6341 31.8186C18.5288 33.452 21.7956 33.7787 24.0171 33.7787C25.0624 33.7787 25.8465 33.7134 26.2385 33.6481C27.4145 33.5174 28.2639 32.472 28.1986 31.2959C28.0679 30.1199 27.0225 29.2705 25.8465 29.3359C23.8211 29.5319 20.4889 29.4012 19.5089 28.5518C17.0914 26.4611 15.1967 25.1544 10.5578 25.0237C7.02967 25.0237 6.37631 26.5917 6.37631 28.4865C6.37631 31.0346 7.16035 42.0764 7.74837 44.4285C8.27106 46.5193 12.0606 46.0619 16.0461 46.0619C20.0316 46.1273 21.3383 46.0619 22.7757 46.3886C22.9717 48.61 22.7103 54.2943 22.3183 58.9985C22.1877 60.5012 23.3637 61.8733 24.8664 62.0039C24.9318 62.0039 24.9971 62.0039 25.0624 62.0039C26.4998 62.0039 27.7412 60.8932 27.8066 59.4558C28.5253 50.5701 28.4599 45.1472 27.6759 43.5138C26.6305 41.2924 23.7557 40.639 16.6341 40.443Z" fill="black"/>
<path d="M10.8134 23.9695C13.8032 23.7934 16.0843 21.2269 15.9082 18.237C15.7322 15.2471 13.1656 12.9661 10.1757 13.1421C7.18584 13.3182 4.90479 15.8847 5.08086 18.8746C5.25694 21.8645 7.82346 24.1456 10.8134 23.9695Z" fill="black"/>
<path d="M18.9862 47.6301H6.31099L4.22023 27.7026C4.08956 26.7225 3.24019 26.0038 2.26015 26.1345C1.28011 26.2652 0.561412 27.1145 0.692084 28.0946L2.97885 49.6555C3.04418 50.5702 3.82822 51.2236 4.74292 51.2889L3.63221 60.1746C3.50154 61.1547 4.22023 62.0694 5.20028 62.2C5.26561 62.2 5.33095 62.2 5.39628 62.2C6.31099 62.2 7.02969 61.5467 7.16036 60.632L8.33641 51.3542H14.478L15.6541 60.5013C15.7847 61.416 16.5688 62.0694 17.4181 62.0694C17.4835 62.0694 17.5488 62.0694 17.6141 62.0694C18.5942 61.9387 19.3129 61.024 19.1822 60.0439L18.0715 51.1582H18.9862C19.9662 51.1582 20.7503 50.3742 20.7503 49.3942C20.7503 48.4141 19.9662 47.6301 18.9862 47.6301Z" fill="black"/>
<path d="M52.5036 35.5427H19.1169C18.9209 35.5427 18.7249 35.7387 18.7249 35.9347V38.3522C18.7249 38.5482 18.9209 38.7442 19.1169 38.7442H31.008V61.4158C31.008 61.6118 31.2041 61.8079 31.4001 61.8079H40.1551C40.3511 61.8079 40.5471 61.6118 40.5471 61.4158V38.8095H52.4383C52.6343 38.8095 52.8303 38.6135 52.8303 38.4175V36.0001C52.8957 35.7387 52.6996 35.5427 52.5036 35.5427Z" fill="black"/>
</svg>
