<svg width="36" height="36" viewBox="0 0 36 36" fill="none" xmlns="http://www.w3.org/2000/svg">
<path d="M17.231 24.477H18.8075V14.3385L23.2385 18.769L24.3 17.7075L18.0385 11.4845L11.7385 17.7075L12.8 18.769L17.231 14.3385V24.477ZM18.0065 36C15.5252 36 13.1953 35.5277 11.017 34.583C8.83867 33.6383 6.93067 32.348 5.293 30.712C3.65533 29.076 2.36383 27.1698 1.4185 24.9935C0.472833 22.8172 0 20.4882 0 18.0065C0 15.5175 0.472333 13.1773 1.417 10.986C2.36167 8.795 3.652 6.889 5.288 5.268C6.924 3.647 8.83017 2.36383 11.0065 1.4185C13.1828 0.472833 15.5118 0 17.9935 0C20.4825 0 22.8227 0.472335 25.014 1.417C27.205 2.36167 29.111 3.64367 30.732 5.263C32.353 6.88233 33.6362 8.78667 34.5815 10.976C35.5272 13.165 36 15.5042 36 17.9935C36 20.4748 35.5277 22.8047 34.583 24.983C33.6383 27.1613 32.3563 29.0693 30.737 30.707C29.1177 32.3447 27.2133 33.6362 25.024 34.5815C22.835 35.5272 20.4958 36 18.0065 36Z" fill="currentcolor"/>
</svg>
