<svg width="46" height="45" viewBox="0 0 46 45" fill="none" xmlns="http://www.w3.org/2000/svg">
<path fill-rule="evenodd" clip-rule="evenodd" d="M23.3955 0.00392621C29.0999 -0.0879258 34.7999 1.4243 38.9915 5.33683C43.3446 9.40007 46.0377 15.1136 45.9996 21.103C45.9617 27.0581 42.864 32.3642 38.792 36.6676C34.6098 41.0874 29.443 44.8058 23.3955 44.9916C17.1943 45.1821 11.3973 42.1015 7.03376 37.6432C2.69455 33.2098 -0.231394 27.3348 0.0143886 21.103C0.252173 15.0741 3.83576 9.84931 8.28843 5.83121C12.4684 2.05923 17.7931 0.0941343 23.3955 0.00392621Z" fill="#145EEB"/>
<path fill-rule="evenodd" clip-rule="evenodd" d="M23 13.25C18.1753 13.25 14.25 17.1753 14.25 22C14.25 26.8247 18.1753 30.75 23 30.75C27.8247 30.75 31.75 26.8247 31.75 22C31.75 17.1753 27.8247 13.25 23 13.25ZM23 32C17.4859 32 13 27.5141 13 22C13 16.4859 17.4859 12 23 12C28.5141 12 33 16.4859 33 22C33 27.5141 28.5141 32 23 32Z" fill="white"/>
<path fill-rule="evenodd" clip-rule="evenodd" d="M21.6221 18.3991V25.3453L26.4846 21.8722L21.6221 18.3991ZM21.2484 26.9485C20.9749 26.9485 20.7056 26.8213 20.5352 26.5828C20.4284 26.4328 20.3721 26.2569 20.3721 26.0738V17.6703C20.3721 17.1882 20.7646 16.7957 21.2471 16.7957C21.4312 16.7957 21.6071 16.8519 21.7565 16.9588L27.6381 21.16C28.0306 21.4407 28.1218 21.9882 27.8415 22.3807C27.7868 22.4585 27.7177 22.5275 27.6381 22.5844L21.7559 26.786C21.6021 26.8957 21.4243 26.9485 21.2484 26.9485Z" fill="white"/>
</svg>
