<svg width="46" height="45" viewBox="0 0 46 45" fill="none" xmlns="http://www.w3.org/2000/svg">
<path fill-rule="evenodd" clip-rule="evenodd" d="M23.3955 0.00392621C29.0999 -0.0879258 34.7999 1.4243 38.9915 5.33683C43.3446 9.40007 46.0377 15.1136 45.9996 21.103C45.9617 27.0581 42.864 32.3642 38.792 36.6676C34.6098 41.0874 29.443 44.8058 23.3955 44.9916C17.1943 45.1821 11.3973 42.1015 7.03376 37.6432C2.69455 33.2098 -0.231394 27.3348 0.0143886 21.103C0.252173 15.0741 3.83576 9.84931 8.28843 5.83121C12.4684 2.05923 17.7931 0.0941343 23.3955 0.00392621Z" fill="#145EEB"/>
<path d="M32.6405 12H13.3595C12.6541 12 11.9777 12.2802 11.4789 12.7789C10.9802 13.2777 10.7 13.9541 10.7 14.6595V26.627C10.7 27.3324 10.9802 28.0088 11.4789 28.5075C11.9777 29.0063 12.6541 29.2865 13.3595 29.2865H19.8219L19.4895 30.6162H17.6811C17.5047 30.6162 17.3356 30.6863 17.2109 30.8109C17.0863 30.9356 17.0162 31.1047 17.0162 31.2811C17.0162 31.4574 17.0863 31.6265 17.2109 31.7512C17.3356 31.8759 17.5047 31.9459 17.6811 31.9459H28.3189C28.4952 31.9459 28.6644 31.8759 28.789 31.7512C28.9137 31.6265 28.9838 31.4574 28.9838 31.2811C28.9838 31.1047 28.9137 30.9356 28.789 30.8109C28.6644 30.6863 28.4952 30.6162 28.3189 30.6162H26.5105L26.1781 29.2865H28.6513C28.8277 29.2865 28.9968 29.2164 29.1215 29.0918C29.2462 28.9671 29.3162 28.798 29.3162 28.6216C29.3162 28.4453 29.2462 28.2762 29.1215 28.1515C28.9968 28.0268 28.8277 27.9568 28.6513 27.9568H13.3595C13.0068 27.9568 12.6686 27.8167 12.4192 27.5673C12.1698 27.3179 12.0297 26.9797 12.0297 26.627V14.6595C12.0297 14.3068 12.1698 13.9686 12.4192 13.7192C12.6686 13.4698 13.0068 13.3297 13.3595 13.3297H32.6405C32.9932 13.3297 33.3314 13.4698 33.5808 13.7192C33.8302 13.9686 33.9703 14.3068 33.9703 14.6595V26.627C33.9703 26.9797 33.8302 27.3179 33.5808 27.5673C33.3314 27.8167 32.9932 27.9568 32.6405 27.9568C32.4642 27.9568 32.2951 28.0268 32.1704 28.1515C32.0457 28.2762 31.9757 28.4453 31.9757 28.6216C31.9757 28.798 32.0457 28.9671 32.1704 29.0918C32.2951 29.2164 32.4642 29.2865 32.6405 29.2865C33.3459 29.2865 34.0223 29.0063 34.5211 28.5075C35.0198 28.0088 35.3 27.3324 35.3 26.627V14.6595C35.3 13.9541 35.0198 13.2777 34.5211 12.7789C34.0223 12.2802 33.3459 12 32.6405 12ZM25.1409 30.6162H20.8591L21.1916 29.2865H24.8084L25.1409 30.6162Z" fill="white"/>
<path d="M23 21.6405C23.526 21.6405 24.0401 21.4846 24.4775 21.1923C24.9148 20.9001 25.2557 20.4848 25.457 19.9988C25.6583 19.5129 25.7109 18.9781 25.6083 18.4623C25.5057 17.9464 25.2524 17.4725 24.8805 17.1006C24.5086 16.7286 24.0347 16.4753 23.5188 16.3727C23.0029 16.2701 22.4682 16.3228 21.9822 16.5241C21.4963 16.7254 21.0809 17.0662 20.7887 17.5036C20.4965 17.9409 20.3405 18.4551 20.3405 18.9811C20.3405 19.6864 20.6207 20.3629 21.1195 20.8616C21.6182 21.3604 22.2946 21.6405 23 21.6405ZM23 17.6514C23.263 17.6514 23.5201 17.7293 23.7387 17.8755C23.9574 18.0216 24.1278 18.2292 24.2285 18.4722C24.3291 18.7152 24.3555 18.9826 24.3042 19.2405C24.2528 19.4984 24.1262 19.7354 23.9402 19.9213C23.7543 20.1073 23.5173 20.234 23.2594 20.2853C23.0014 20.3366 22.7341 20.3102 22.4911 20.2096C22.2481 20.109 22.0405 19.9385 21.8943 19.7198C21.7482 19.5012 21.6702 19.2441 21.6702 18.9811C21.6702 18.6284 21.8103 18.2902 22.0597 18.0408C22.3091 17.7915 22.6473 17.6514 23 17.6514Z" fill="white"/>
<path d="M20.673 24.9649C20.8493 24.9649 21.0184 24.8948 21.1431 24.7701C21.2678 24.6454 21.3378 24.4763 21.3378 24.3C21.3378 24.1237 21.4079 23.9546 21.5326 23.8299C21.6572 23.7052 21.8263 23.6351 22.0027 23.6351H23.9973C24.1736 23.6351 24.3427 23.7052 24.4674 23.8299C24.5921 23.9546 24.6621 24.1237 24.6621 24.3C24.6621 24.4763 24.7322 24.6454 24.8569 24.7701C24.9816 24.8948 25.1507 24.9649 25.327 24.9649C25.5033 24.9649 25.6725 24.8948 25.7971 24.7701C25.9218 24.6454 25.9919 24.4763 25.9919 24.3C25.9919 23.771 25.7817 23.2637 25.4077 22.8896C25.0336 22.5155 24.5263 22.3054 23.9973 22.3054H22.0027C21.4737 22.3054 20.9663 22.5155 20.5923 22.8896C20.2182 23.2637 20.0081 23.771 20.0081 24.3C20.0081 24.4763 20.0781 24.6454 20.2028 24.7701C20.3275 24.8948 20.4966 24.9649 20.673 24.9649Z" fill="white"/>
</svg>
