<?xml version="1.0" encoding="UTF-8"?>
<svg width="1200pt" height="1200pt" version="1.1" viewBox="0 0 1200 1200" xmlns="http://www.w3.org/2000/svg">
  <g transform="rotate(180, 600, 600)" fill="#FF719C">
    <path d="m580 460c-80 80-175 100-330 100-30 140-110 395-150 505l255-255c0-10-5-15-5-25 0-35 30-65 65-65s65 30 65 65c-5 35-30 65-65 65-10 0-15 0-25-5l-255 255c110-35 360-120 505-150 0-155 20-250 100-330z"/>
    <path d="m1085 245-130-130c-20-20-50-20-70 0l-265 265 200 200 265-265c20-20 20-55 0-70z"/>
  </g>
</svg>
