<svg width="11" height="12" viewBox="0 0 11 12" fill="none" xmlns="http://www.w3.org/2000/svg">
<g clip-path="url(#clip0_1582_10182)">
<path d="M6.50602 3.57237C6.23985 3.59349 5.93238 3.61461 5.62491 3.65591C5.15408 3.71648 4.68324 3.79909 4.2944 3.98295C3.53691 4.29166 3.02477 4.94729 3.02477 5.91132C3.02477 7.12195 3.80307 7.73596 4.78542 7.73596C5.1137 7.73596 5.37956 7.69589 5.62491 7.63409C6.01469 7.5111 6.34234 7.28531 6.73119 6.87597C6.95697 7.18344 7.01785 7.32724 7.40731 7.65521C7.50949 7.69651 7.61167 7.69651 7.69366 7.63471C7.93933 7.43004 8.36886 7.06076 8.59464 6.85578C8.69651 6.77286 8.67633 6.6508 8.61514 6.54769C8.38935 6.26072 8.16481 6.01412 8.16481 5.46129V3.61554C8.16481 2.83506 8.22537 2.11794 7.65329 1.5853C7.18183 1.15329 6.44483 0.990234 5.87213 0.990234C5.79014 0.990234 5.70846 0.990234 5.62615 0.990234C4.582 1.05142 3.47665 1.50175 3.23037 2.79499C3.18999 2.95805 3.31329 3.02047 3.39497 3.04128L4.54131 3.18539C4.6643 3.16365 4.72548 3.06178 4.74567 2.95867C4.84909 2.50864 5.21712 2.28285 5.62646 2.24155C5.64727 2.24155 5.66777 2.24155 5.70877 2.24155C5.95412 2.24155 6.21998 2.34466 6.36377 2.54809C6.52621 2.79499 6.50695 3.12358 6.50695 3.40994L6.50602 3.57237ZM6.28085 6.01288C6.13767 6.30016 5.8917 6.48464 5.62553 6.54645C5.58485 6.54645 5.52397 6.56757 5.46217 6.56757C5.01183 6.56757 4.74474 6.21879 4.74474 5.70572C4.74474 5.0504 5.1342 4.74169 5.62553 4.59851C5.8917 4.53733 6.19917 4.51621 6.50633 4.51621V4.7625C6.50602 5.23457 6.52527 5.60323 6.28085 6.01288ZM11.0001 8.86055V8.92733C10.9892 9.32828 10.7777 10.0976 10.277 10.5209C10.177 10.5985 10.0767 10.5541 10.1208 10.442C10.2665 10.0864 10.5994 9.26089 10.4438 9.07175C10.3336 8.92733 9.87671 8.9382 9.48755 8.97174C9.3099 8.9941 9.15368 9.00435 9.03132 9.02858C8.92044 9.03883 8.89746 8.93944 9.00926 8.8618C9.15399 8.76148 9.31021 8.68384 9.48786 8.627C10.1211 8.43817 10.8563 8.54936 10.9566 8.67235C10.9783 8.70402 11.0001 8.7708 11.0001 8.86055ZM9.94348 9.6401C9.79875 9.75098 9.64377 9.85191 9.48755 9.94229C8.31947 10.6445 6.80697 11.011 5.49478 11.011C3.38069 11.011 1.4899 10.2308 0.0553432 8.92733C-0.0676451 8.8267 0.0326711 8.68228 0.1774 8.75993C1.72345 9.66246 3.6366 10.2091 5.61653 10.2091C6.86287 10.2091 8.20736 9.9749 9.48724 9.4727C9.57576 9.4404 9.67607 9.39444 9.76521 9.36214C9.96553 9.27176 10.1438 9.4963 9.94348 9.6401Z" fill="currentcolor"/>
</g>
<defs>
<clipPath id="clip0_1582_10182">
<rect width="11" height="11" fill="white" transform="translate(0 0.5)"/>
</clipPath>
</defs>
</svg>
