<svg width="95" height="89" viewBox="0 0 95 89" fill="none" xmlns="http://www.w3.org/2000/svg">
<path d="M62.6 8.7H51.8V0H43.2V8.6H32.4C14.5 8.7 0 22.8 0 40.3C0 57.7 14.5 71.9 32.4 71.9H34.5V63.3H32.3C19.2 63.3 8.5 53 8.5 40.4C8.5 27.7 19.2 17.5 32.3 17.5H62.5C75.6 17.5 86.3 27.8 86.3 40.4C86.3 53.1 75.6 63.3 62.5 63.3H50.2L34.5 76.9V88.4L53.4 71.9H62.6C80.5 71.9 95 57.7 95 40.3C95 22.8 80.5 8.7 62.6 8.7Z" fill="white"/>
<path d="M32.4 47.6C35.9899 47.6 38.9 44.6899 38.9 41.1C38.9 37.5102 35.9899 34.6 32.4 34.6C28.8102 34.6 25.9 37.5102 25.9 41.1C25.9 44.6899 28.8102 47.6 32.4 47.6Z" fill="white"/>
<path d="M62.6 47.6C66.1898 47.6 69.1 44.6899 69.1 41.1C69.1 37.5102 66.1898 34.6 62.6 34.6C59.0101 34.6 56.1 37.5102 56.1 41.1C56.1 44.6899 59.0101 47.6 62.6 47.6Z" fill="white"/>
</svg>
