<svg width="20" height="20" viewBox="0 0 20 20" fill="none" xmlns="http://www.w3.org/2000/svg">
<path d="M16 0H4C2.9395 0.00119105 1.92278 0.423001 1.17289 1.17289C0.423001 1.92278 0.00119105 2.9395 0 4V16C0.00119105 17.0605 0.423001 18.0772 1.17289 18.8271C1.92278 19.577 2.9395 19.9988 4 20H16C17.0605 19.9989 18.0773 19.5771 18.8272 18.8272C19.5771 18.0773 19.9989 17.0605 20 16V4C19.9989 2.93948 19.5771 1.92271 18.8272 1.1728C18.0773 0.422896 17.0605 0.0011118 16 0ZM18 16C17.9994 16.5302 17.7885 17.0386 17.4135 17.4135C17.0386 17.7885 16.5302 17.9994 16 18H4C3.46973 17.9995 2.96133 17.7886 2.58637 17.4136C2.21141 17.0387 2.00053 16.5303 2 16V4C2.00053 3.46973 2.21141 2.96133 2.58637 2.58637C2.96133 2.21141 3.46973 2.00053 4 2H16C16.5302 2.00061 17.0386 2.21152 17.4135 2.58646C17.7885 2.9614 17.9994 3.46975 18 4V16Z" fill="black"/>
<path d="M10 5.53857C9.11766 5.53867 8.25515 5.80041 7.52154 6.2907C6.78793 6.78098 6.21618 7.47779 5.87859 8.29302C5.54099 9.10824 5.45271 10.0053 5.62491 10.8707C5.79711 11.7361 6.22206 12.5309 6.84602 13.1548C7.46997 13.7787 8.26492 14.2036 9.13033 14.3757C9.99575 14.5478 10.8928 14.4594 11.7079 14.1217C12.5231 13.784 13.2199 13.2122 13.7101 12.4785C14.2003 11.7449 14.4619 10.8823 14.4619 9.99997C14.4606 8.81707 13.99 7.683 13.1535 6.8466C12.3171 6.01021 11.1829 5.53979 10 5.53857ZM10 12.4614C9.51323 12.4613 9.03739 12.3168 8.63268 12.0463C8.22797 11.7758 7.91257 11.3913 7.72634 10.9416C7.54012 10.4918 7.49145 9.9969 7.58648 9.51947C7.68151 9.04204 7.91598 8.60351 8.26023 8.25933C8.60448 7.91514 9.04306 7.68077 9.52051 7.58583C9.99797 7.4909 10.4928 7.53967 10.9426 7.72598C11.3923 7.9123 11.7767 8.22778 12.0471 8.63255C12.3176 9.03731 12.4619 9.51318 12.4619 9.99997C12.4612 10.6527 12.2016 11.2784 11.7401 11.7399C11.2785 12.2013 10.6527 12.4608 10 12.4614Z" fill="black"/>
</svg>
