<svg width="23" height="20" viewBox="0 0 23 20" fill="none" xmlns="http://www.w3.org/2000/svg">
<path d="M5.18146 5.73946V20H0.129213V5.73946H5.18146ZM2.67472 0C3.39831 0 4.02715 0.146843 4.56124 0.440529C5.10393 0.734214 5.37528 1.31739 5.37528 2.19006C5.37528 3.03755 5.10393 3.61233 4.56124 3.91441C4.02715 4.2081 3.39831 4.35494 2.67472 4.35494C1.9339 4.35494 1.30075 4.2081 0.775281 3.91441C0.258427 3.61233 0 3.03755 0 2.19006C0 1.31739 0.258427 0.734214 0.775281 0.440529C1.30075 0.146843 1.9339 0 2.67472 0Z" fill="black"/>
<path d="M17.8702 5.48773C19.3777 5.48773 20.6096 5.90308 21.5657 6.73379C22.5219 7.56451 23 8.89448 23 10.7237V20H17.9478V12.2215C17.9478 11.2733 17.8056 10.5601 17.5213 10.0818C17.2457 9.59513 16.7978 9.35179 16.1775 9.35179C15.2213 9.35179 14.5796 9.73358 14.2522 10.4972C13.9249 11.2524 13.7612 12.339 13.7612 13.7571V20H8.70899V5.73946H12.5208L13.2056 7.62744H13.3994C13.7096 7.17432 14.08 6.78834 14.5107 6.46948C14.9414 6.15062 15.4367 5.90728 15.9966 5.73946C16.5566 5.57164 17.1811 5.48773 17.8702 5.48773Z" fill="black"/>
</svg>
