<svg width="43" height="45" viewBox="0 0 43 45" fill="none" xmlns="http://www.w3.org/2000/svg">
<path fill-rule="evenodd" clip-rule="evenodd" d="M20.712 0.0467039C26.8127 -0.174119 33.3686 0.240364 37.7634 4.57061C42.2127 8.95447 43.1048 15.6827 42.9907 21.998C42.8791 28.1742 41.3979 34.4042 37.1449 38.7933C32.8739 43.2009 26.7791 45.164 20.712 44.9893C14.816 44.8195 9.17462 42.308 5.17972 37.8728C1.33724 33.6068 0.0668641 27.7961 0.00318053 21.998C-0.061394 16.1188 0.834068 9.99533 4.82704 5.76279C8.87762 1.46919 14.88 0.257802 20.712 0.0467039Z" fill="#145EEB"/>
<path d="M30.5205 19.3392C30.5205 18.2281 29.614 17.3216 28.5029 17.3216C27.3918 17.3216 26.4854 18.2281 26.4854 19.3392C26.4854 20.3041 27.1579 21.0936 28.0643 21.2982V25.2164C28.0643 30.1287 24.5848 31.152 21.6901 31.152C19.731 31.152 17.5088 30.6257 17.3918 26.5906C20.0526 26.3567 22.1287 24.076 22.1287 21.2982V15.3626C22.1287 15.3041 22.1287 15.2456 22.0994 15.2164C22.0702 15.1579 22.0409 15.0994 22.0117 15.0702L20.579 13.6374C20.579 13.6082 20.579 13.5789 20.579 13.5497C20.579 12.731 19.9064 12.0585 19.0877 12.0585C18.269 12.0585 17.5965 12.731 17.5965 13.5497C17.5965 14.3684 18.269 15.0409 19.0877 15.0409C19.5263 15.0409 19.9064 14.8363 20.1988 14.5439L21.2515 15.5965V21.3275C21.2515 21.8246 21.1637 22.2924 21.0175 22.731H12.8889C12.7427 22.2924 12.655 21.8246 12.655 21.3275V15.538L13.7076 14.4854C13.9708 14.7778 14.3801 14.9825 14.8187 14.9825C15.6374 14.9825 16.3099 14.3099 16.3099 13.4912C16.3099 12.6725 15.6374 12 14.8187 12C14 12 13.3275 12.6725 13.3275 13.4912C13.3275 13.5205 13.3275 13.5497 13.3275 13.5789L11.924 15.0409C11.8947 15.0702 11.8363 15.1287 11.8363 15.1871C11.807 15.2456 11.807 15.3041 11.807 15.3333V21.269C11.807 24.0468 13.9123 26.3567 16.5439 26.5614C16.6608 30.1579 18.386 32 21.7193 32C26.3977 32 28.9708 29.5731 28.9708 25.1871V21.2982C29.848 21.0936 30.5205 20.3041 30.5205 19.3392ZM19.117 14.1053C18.7953 14.1053 18.5029 13.8421 18.5029 13.4912C18.5029 13.1404 18.7661 12.8772 19.117 12.8772C19.4678 12.8772 19.731 13.1404 19.731 13.4912C19.731 13.8421 19.4386 14.1053 19.117 14.1053ZM14.8187 12.9064C15.1404 12.9064 15.4328 13.1696 15.4328 13.5205C15.4328 13.8713 15.1696 14.1345 14.8187 14.1345C14.4678 14.1345 14.2047 13.8713 14.2047 13.5205C14.2047 13.1696 14.4971 12.9064 14.8187 12.9064ZM13.269 23.5497H20.6374C19.8772 24.8363 18.5029 25.7135 16.9532 25.7135C15.4035 25.7135 14.0292 24.8363 13.269 23.5497ZM28.5322 20.4795C27.9181 20.4795 27.3918 19.9825 27.3918 19.3392C27.3918 18.6959 27.8889 18.1988 28.5322 18.1988C29.1462 18.1988 29.6725 18.6959 29.6725 19.3392C29.6725 19.9825 29.1462 20.4795 28.5322 20.4795Z" fill="white"/>
<path d="M28.5322 19.9532C28.8713 19.9532 29.1462 19.6783 29.1462 19.3392C29.1462 19.0001 28.8713 18.7251 28.5322 18.7251C28.193 18.7251 27.9181 19.0001 27.9181 19.3392C27.9181 19.6783 28.193 19.9532 28.5322 19.9532Z" fill="white"/>
</svg>
