<svg width="53" height="62" viewBox="0 0 53 62" fill="none" xmlns="http://www.w3.org/2000/svg">
<path d="M6.59158 46.4023C5.48211 46.4023 4.56842 45.4886 4.56842 44.3791V18.4044H44.1179V33.8065C45.7495 34.198 47.3158 34.7854 48.6863 35.6338V11.617C48.6863 8.22331 45.88 5.41699 42.4863 5.41699H41.1811V8.02752C41.1811 10.8338 38.8968 13.118 36.0905 13.118H32.9579C30.1516 13.118 27.8674 10.8338 27.8674 8.02752V5.41699H20.8189V8.02752C20.8189 10.8338 18.5347 13.118 15.7284 13.118H12.5958C9.78947 13.118 7.50526 10.8338 7.50526 8.02752V5.41699H6.59158C2.93684 5.41699 0 8.35383 0 12.0086V44.4444C0 48.0991 2.93684 51.0359 6.59158 51.0359H24.4737C24.4084 50.5791 24.4084 50.1223 24.4084 49.6001C24.4084 48.5559 24.5389 47.4465 24.7347 46.4675H6.59158V46.4023Z" fill="black"/>
<path d="M16.5116 22.9074C16.5116 22.4506 16.1853 22.1243 15.7284 22.1243H9.3979C8.94106 22.1243 8.61475 22.4506 8.61475 22.9074V26.4316C8.61475 26.8885 8.94106 27.2148 9.3979 27.2148H15.7284C16.1853 27.2148 16.5116 26.8885 16.5116 26.4316V22.9074Z" fill="black"/>
<path d="M15.7284 37.6567H9.3979C8.94106 37.6567 8.61475 37.9831 8.61475 38.4399V41.8988C8.61475 42.3557 8.94106 42.682 9.3979 42.682H15.7284C16.1853 42.682 16.5116 42.3557 16.5116 41.8988V38.4399C16.5116 37.9831 16.1853 37.6567 15.7284 37.6567Z" fill="black"/>
<path d="M32.8927 27.2147H39.1579C39.6148 27.2147 39.9411 26.8884 39.9411 26.4316V22.9726C39.9411 22.5158 39.6148 22.1895 39.1579 22.1895H32.8927C32.4358 22.1895 32.1095 22.5158 32.1095 22.9726V26.4316C32.1095 26.8231 32.5011 27.2147 32.8927 27.2147Z" fill="black"/>
<path d="M28.2589 22.9074C28.2589 22.4506 27.9326 22.1243 27.4758 22.1243H21.2105C20.7537 22.1243 20.4274 22.4506 20.4274 22.9074V26.4316C20.4274 26.8885 20.7537 27.2148 21.2105 27.2148H27.4758C27.9326 27.2148 28.2589 26.8885 28.2589 26.4316V22.9074Z" fill="black"/>
<path d="M28.259 38.4399C28.259 38.0483 27.9326 37.6567 27.4758 37.6567H21.1453C20.7537 37.6567 20.3621 37.9831 20.3621 38.4399V41.8988C20.3621 42.2904 20.6884 42.682 21.1453 42.682H25.9095C26.4969 41.3767 27.28 40.202 28.1937 39.0925V38.4399H28.259Z" fill="black"/>
<path d="M16.5116 30.6738C16.5116 30.2169 16.1853 29.8906 15.7284 29.8906H9.3979C8.94106 29.8906 8.61475 30.2169 8.61475 30.6738V34.1327C8.61475 34.5896 8.94106 34.9159 9.3979 34.9159H15.7284C16.1853 34.9159 16.5116 34.5896 16.5116 34.1327V30.6738Z" fill="black"/>
<path d="M32.8927 34.9159H33.7411C35.6337 34.0022 37.7874 33.4801 40.0063 33.4148V30.6738C40.0063 30.2169 39.68 29.8906 39.2232 29.8906H32.8927C32.5011 29.8906 32.1095 30.2169 32.1095 30.6738V34.1327C32.1748 34.5896 32.5011 34.9159 32.8927 34.9159Z" fill="black"/>
<path d="M27.4758 29.8906H21.2105C20.7537 29.8906 20.4274 30.2169 20.4274 30.6738V34.1327C20.4274 34.5896 20.7537 34.9159 21.2105 34.9159H27.4758C27.9326 34.9159 28.2589 34.5896 28.2589 34.1327V30.6738C28.2589 30.2822 27.9326 29.8906 27.4758 29.8906Z" fill="black"/>
<path d="M12.5958 9.65895H15.7284C16.6421 9.65895 17.36 8.94105 17.36 8.02737V1.63158C17.36 0.717895 16.6421 0 15.7284 0H12.5958C11.6821 0 10.9642 0.717895 10.9642 1.63158V8.02737C10.9642 8.94105 11.6821 9.65895 12.5958 9.65895Z" fill="black"/>
<path d="M32.8926 9.65895H36.0253C36.9389 9.65895 37.6568 8.94105 37.6568 8.02737V1.63158C37.6568 0.717895 36.9389 0 36.0253 0H32.8926C31.9789 0 31.261 0.717895 31.261 1.63158V8.02737C31.261 8.94105 32.0442 9.65895 32.8926 9.65895Z" fill="black"/>
<path d="M40.5284 37.0696C33.6758 37.0696 28.0632 42.6169 28.0632 49.5348C28.0632 56.4527 33.6758 62.0001 40.5284 62.0001C47.3811 62.0001 52.9937 56.4527 52.9937 49.5348C52.9937 42.6169 47.3811 37.0696 40.5284 37.0696ZM45.619 51.3622H40.5284C39.5495 51.3622 38.7011 50.5138 38.7011 49.5348V42.617C38.7011 41.638 39.5495 40.7896 40.5284 40.7896C41.5074 40.7896 42.3558 41.638 42.3558 42.617V47.7075H45.619C46.5979 47.7075 47.4463 48.5559 47.4463 49.5348C47.4463 50.5138 46.6632 51.3622 45.619 51.3622Z" fill="black"/>
</svg>
