<svg width="24" height="24" viewBox="0 0 24 24" fill="none" xmlns="http://www.w3.org/2000/svg">
<path d="M8.90406 12L0.641339 3.73728C-0.21378 2.88216 -0.21378 1.49646 0.641339 0.641339C1.49646 -0.21378 2.88216 -0.21378 3.73728 0.641339L12 8.90406L20.2627 0.641339C21.1178 -0.21378 22.5035 -0.21378 23.3587 0.641339C24.2138 1.49646 24.2138 2.88216 23.3587 3.73728L15.0959 12L23.3587 20.2627C24.2138 21.1178 24.2138 22.5035 23.3587 23.3587C22.5035 24.2138 21.1178 24.2138 20.2627 23.3587L12 15.0959L3.73728 23.3587C2.88216 24.2138 1.49646 24.2138 0.641339 23.3587C-0.21378 22.5035 -0.21378 21.1178 0.641339 20.2627L8.90406 12Z" fill="black"/>
</svg>
