<svg width="43" height="45" viewBox="0 0 43 45" fill="none" xmlns="http://www.w3.org/2000/svg">
<path fill-rule="evenodd" clip-rule="evenodd" d="M20.712 0.0467039C26.8127 -0.174119 33.3686 0.240364 37.7634 4.57061C42.2127 8.95447 43.1048 15.6827 42.9907 21.998C42.8791 28.1742 41.3979 34.4042 37.1449 38.7933C32.8739 43.2009 26.7791 45.164 20.712 44.9893C14.816 44.8195 9.17462 42.308 5.17972 37.8728C1.33724 33.6068 0.0668641 27.7961 0.00318053 21.998C-0.061394 16.1188 0.834068 9.99533 4.82704 5.76279C8.87762 1.46919 14.88 0.257802 20.712 0.0467039Z" fill="#145EEB"/>
<path fill-rule="evenodd" clip-rule="evenodd" d="M11.0321 16.913H29.5503L30.6263 29.5996C30.6617 30.0379 30.55 30.4056 30.3484 30.6534C30.1468 30.9015 29.8654 31.0504 29.4493 31.0504H11.1331C10.7174 31.0504 10.4356 30.9015 10.234 30.6534C10.0324 30.4056 9.91889 30.0379 9.95613 29.5996L11.0321 16.913ZM23.7022 9.92915C23.883 9.9202 24.0678 9.9646 24.2507 10.0634C24.6403 10.2725 24.9669 10.7609 25.0843 11.3635H24.1444C23.4824 11.332 23.4824 12.3428 24.1444 12.3091H27.7719C28.2359 12.3091 28.5939 12.4266 28.8346 12.6167C29.0734 12.8054 29.2245 13.0679 29.2617 13.5047L29.4705 15.9663H11.1123L11.3214 13.5047C11.3568 13.0679 11.5094 12.8054 11.7482 12.6167C11.987 12.4266 12.3469 12.3091 12.8113 12.3091H14.5382C14.5657 12.505 14.6037 12.6987 14.6645 12.8888C14.995 13.924 15.8229 14.6809 16.8097 14.6809C17.4731 14.7128 17.4731 13.7023 16.8097 13.7338C16.3137 13.7338 15.8024 13.3385 15.5654 12.5999C15.3287 11.8634 15.4763 10.9811 15.888 10.4498C16.1455 10.1161 16.438 9.94598 16.7402 9.92951C16.921 9.92056 17.1058 9.96496 17.2887 10.0638C17.6783 10.2729 18.0048 10.7613 18.1223 11.3639H16.578C15.946 11.3639 15.9381 12.3095 16.5798 12.3095H21.4995C21.527 12.5054 21.565 12.6991 21.6266 12.8892C21.9563 13.9243 22.7842 14.6813 23.7731 14.6813C24.4348 14.7131 24.4348 13.7027 23.7731 13.7342C23.275 13.7342 22.7637 13.3389 22.5271 12.6002C22.2904 11.8637 22.4379 10.9815 22.8497 10.4501C23.1071 10.1157 23.4 9.94562 23.7022 9.92915ZM16.9586 9.0043C16.8712 8.99857 16.7814 8.99857 16.6936 9.0043C16.5762 9.01325 16.4605 9.03187 16.3453 9.06194C15.8866 9.1776 15.4558 9.45724 15.1368 9.86936C14.8045 10.2987 14.6051 10.8189 14.5324 11.3632H12.8113C12.1882 11.3632 11.6082 11.5196 11.1628 11.8727C10.7148 12.2268 10.4313 12.7768 10.3754 13.4256L9.0105 29.5212C8.95465 30.1686 9.12222 30.784 9.4971 31.2467C9.87198 31.7107 10.4613 32 11.1327 32H29.4493C30.1207 32 30.7101 31.7107 31.0849 31.2467C31.4598 30.784 31.6238 30.1686 31.5701 29.5212L30.2048 13.4256C30.1508 12.7768 29.8672 12.2268 29.42 11.8727C28.9742 11.52 28.3942 11.3632 27.7715 11.3632H26.046C25.9247 10.4437 25.4531 9.63268 24.698 9.22772C24.2558 8.99105 23.7656 8.9445 23.3069 9.06194C22.8482 9.1776 22.4175 9.45724 22.1006 9.86936C21.7684 10.2987 21.5675 10.8189 21.4923 11.3632H19.0847C18.9616 10.4437 18.4918 9.63268 17.7367 9.22772C17.4867 9.0956 17.2236 9.02113 16.9586 9.0043Z" fill="white"/>
<path fill-rule="evenodd" clip-rule="evenodd" d="M19.1667 24.2961H20.914L20.3494 28.1674H18.5219L19.3794 27.7592C19.6931 27.6099 19.9165 27.3338 19.9913 27.0392C20.0676 26.7445 20.0139 26.448 19.881 26.1959C19.7135 25.8791 19.378 25.6291 18.982 25.5529L19.1667 24.2961ZM14.5267 23.7608C15.3792 23.7608 16.0431 24.4153 16.0431 25.2342V25.3606L15.5937 24.7118C15.4687 24.5253 15.2281 24.4508 15.0176 24.5346C14.734 24.6463 14.6295 24.9914 14.8067 25.2396L15.8383 26.7294C16.1308 27.1505 16.4537 27.3206 16.9497 27.1301L18.5867 26.496C19.0718 26.308 19.1893 26.8021 18.9616 26.9103L16.5039 28.0793C16.2779 28.1853 15.8905 28.0718 15.7244 27.8426L14.4809 26.1454C14.106 25.6367 13.3337 26.1866 13.7089 26.6954L14.7863 28.1667H13.0132V25.2335C13.0128 24.4153 13.6767 23.7608 14.5267 23.7608ZM14.5267 19.5555C15.3141 19.5555 15.9349 20.1745 15.9349 20.9433C15.9349 21.7134 15.3137 22.3325 14.5267 22.3325C13.7418 22.3325 13.1206 21.7134 13.1206 20.9433C13.121 20.1745 13.7418 19.5555 14.5267 19.5555ZM14.5267 18.6062C13.2363 18.6062 12.1718 19.6561 12.1718 20.9433C12.1718 21.8642 12.716 22.6587 13.4976 23.0372C12.6566 23.4214 12.0654 24.2589 12.0654 25.2342V28.6414C12.0654 28.9021 12.2778 29.1152 12.5409 29.113H20.7558C20.9924 29.1148 21.1922 28.9429 21.2259 28.7102L21.9323 23.8911C21.9735 23.6061 21.7533 23.3508 21.4644 23.3487H18.7564C18.5215 23.3505 18.3239 23.522 18.2881 23.7529L18.0013 25.7111L16.979 26.1064C16.9865 26.0674 16.9905 26.028 16.9887 25.989V25.2338C16.9887 24.2585 16.399 23.421 15.5565 23.0368C16.3374 22.6584 16.8802 21.8638 16.8802 20.9429C16.8805 19.6561 15.8193 18.6062 14.5267 18.6062Z" fill="white"/>
<path fill-rule="evenodd" clip-rule="evenodd" d="M26.0518 23.7608C26.9039 23.7608 27.566 24.4153 27.566 25.2342V27.9196C27.566 28.1731 27.3723 28.369 27.1034 28.369H23.3742C22.9958 28.369 23.042 27.8466 23.4186 27.8133L25.9325 27.5841C26.2218 27.558 26.5029 27.4405 26.6673 27.2164C26.8316 26.9926 26.8445 26.7595 26.8445 26.588V25.1257C26.8502 24.8575 26.6322 24.6413 26.3633 24.6445C26.1026 24.6484 25.8917 24.8625 25.8953 25.1257V26.6342L24.5375 26.7592V25.2338C24.5375 24.4153 25.1996 23.7608 26.0518 23.7608ZM26.0518 19.5555C26.837 19.5555 27.4578 20.1745 27.4578 20.9433C27.4578 21.7134 26.8373 22.3325 26.0518 22.3325C25.2669 22.3325 24.6457 21.7134 24.6457 20.9433C24.646 20.1745 25.2669 19.5555 26.0518 19.5555ZM26.0518 18.6062C24.7595 18.6062 23.6961 19.6561 23.6961 20.9433C23.6961 21.8642 24.2407 22.6587 25.0224 23.039C24.1813 23.4232 23.5901 24.2589 23.5901 25.2342V26.8454L23.3327 26.8698C22.6126 26.9346 22.1597 27.554 22.1669 28.1301C22.1708 28.4195 22.2696 28.712 22.4805 28.9411C22.6911 29.1707 23.0176 29.3146 23.3739 29.3146H27.1034C27.8735 29.3146 28.513 28.6876 28.513 27.9196V25.2528C28.513 25.2023 28.5091 25.1483 28.5059 25.1053C28.4572 24.1862 27.8829 23.4067 27.0808 23.039C27.8624 22.6584 28.407 21.8642 28.407 20.9433C28.4074 19.6561 27.3443 18.6062 26.0518 18.6062Z" fill="white"/>
</svg>
