<svg width="43" height="45" viewBox="0 0 43 45" fill="none" xmlns="http://www.w3.org/2000/svg">
<path fill-rule="evenodd" clip-rule="evenodd" d="M22.0618 0.00135392C27.8599 -0.0599702 33.5992 1.96172 37.6239 6.10354C41.5836 10.1785 42.9143 15.8849 42.9959 21.545C43.0789 27.3045 41.926 33.1239 38.0755 37.4345C34.0008 41.996 28.2005 44.751 22.0618 44.9803C15.691 45.2183 9.13825 43.3087 4.79512 38.6778C0.569964 34.1727 -0.304458 27.687 0.0827259 21.545C0.443132 15.8277 2.72088 10.455 6.82802 6.42926C10.9089 2.4292 16.3258 0.0620215 22.0618 0.00135392Z" fill="#145EEB"/>
<path d="M22 9C14.8203 9 9 14.8203 9 22C9 29.1797 14.8203 35 22 35C29.1797 35 35 29.1797 35 22C34.9918 14.8237 29.1763 9.00821 22 9ZM24.5639 10.3684C24.8872 12.146 25.6798 13.8048 26.8597 15.1731C27.6429 16.1237 28.0336 17.3375 27.952 18.5664C27.8541 20.5977 26.5735 22.2957 24.9739 22.5157C24.5679 22.5735 24.154 22.5364 23.7647 22.4073C22.6187 22.0286 21.3813 22.0286 20.2354 22.4073C19.8463 22.5364 19.4326 22.5737 19.0267 22.5163C17.2353 22.0537 16.0003 20.416 16.048 18.5664C15.9665 17.3375 16.3572 16.1237 17.1404 15.1731C18.3128 13.8052 19.0975 12.1482 19.4128 10.3745C21.1079 9.98833 22.8679 9.98627 24.5639 10.3684ZM10.0833 22C10.0915 16.8749 13.3719 12.3277 18.2327 10.7034C17.9046 12.0906 17.2497 13.3793 16.3226 14.4622C15.3572 15.624 14.8719 17.1106 14.9657 18.6183C15.0187 19.8542 15.4627 21.0414 16.2338 22.0087C14.5019 24.2319 14.5403 27.358 16.3263 29.5379C17.2522 30.6212 17.906 31.9099 18.2334 33.2969C13.3722 31.6728 10.0915 27.1253 10.0833 22ZM19.4137 33.6258C19.0988 31.8521 18.315 30.1949 17.1435 28.8264C15.7276 27.0686 15.6744 24.5773 17.014 22.7607C17.5515 23.1969 18.1951 23.4829 18.8791 23.5896C19.0519 23.6132 19.2262 23.625 19.4006 23.625C19.7989 23.625 20.1946 23.5614 20.5728 23.4367C21.4995 23.1299 22.5004 23.1299 23.4271 23.4367C23.9727 23.6169 24.5525 23.6691 25.1215 23.589C25.8052 23.4825 26.4486 23.1967 26.986 22.7607C28.3255 24.5775 28.2723 27.0689 26.8565 28.8269C25.6789 30.1977 24.8857 31.856 24.5576 33.6331C22.8638 34.0136 21.1064 34.0111 19.4137 33.6258ZM25.7569 33.3004C26.0907 31.9131 26.7472 30.6241 27.6732 29.5384C29.4596 27.3585 29.4982 24.2321 27.7662 22.0087C28.5373 21.0414 28.9814 19.8542 29.0343 18.6183C29.1281 17.1106 28.6428 15.624 27.6774 14.4622C26.7492 13.3782 26.0921 12.089 25.7605 10.7009C30.6305 12.3166 33.9174 16.8709 33.9166 22.002C33.9158 27.133 30.6274 31.6863 25.7569 33.3004Z" fill="white"/>
</svg>
