<svg width="43" height="45" viewBox="0 0 43 45" fill="none" xmlns="http://www.w3.org/2000/svg">
<path fill-rule="evenodd" clip-rule="evenodd" d="M20.712 0.0467039C26.8127 -0.174119 33.3686 0.240364 37.7634 4.57061C42.2127 8.95447 43.1048 15.6827 42.9907 21.998C42.8791 28.1742 41.3979 34.4042 37.1449 38.7933C32.8739 43.2009 26.7791 45.164 20.712 44.9893C14.816 44.8195 9.17462 42.308 5.17972 37.8728C1.33724 33.6068 0.0668641 27.7961 0.00318053 21.998C-0.061394 16.1188 0.834068 9.99533 4.82704 5.76279C8.87762 1.46919 14.88 0.257802 20.712 0.0467039Z" fill="#145EEB"/>
<path d="M31.3951 31.7501C30.7769 31.1509 28.8038 29.897 26.5074 28.9115C26.6483 28.8512 26.7875 28.7902 26.9218 28.7251C29.0308 27.6978 28.7283 21.5458 28.7234 21.4839C28.6082 19.6879 26.2903 18.8886 25.0456 18.4581C24.8401 18.3874 24.6653 18.3272 24.541 18.275C24.033 18.0637 23.6377 17.336 23.4595 16.9167C23.8705 16.5408 24.212 16.0516 24.4365 15.4652C24.9072 15.2074 25.2155 14.6114 25.2155 13.9294C25.2155 13.2764 24.9371 12.7053 24.497 12.429C24.0106 10.9711 22.8189 10 21.4996 10C20.1804 10 18.9887 10.9711 18.5023 12.429C18.0622 12.7045 17.7838 13.2764 17.7838 13.9294C17.7838 14.6114 18.0921 15.2074 18.5628 15.4652C18.7873 16.0516 19.1288 16.54 19.5406 16.9167C19.3633 17.3352 18.9688 18.0629 18.4583 18.275C18.334 18.3272 18.1592 18.3874 17.9537 18.4581C16.709 18.8878 14.3903 19.6871 14.2759 21.4839C14.2718 21.5458 13.9693 27.6978 16.0783 28.7251C16.2126 28.791 16.3518 28.852 16.4918 28.9115C14.1955 29.897 12.2224 31.1517 11.6042 31.7501C11.0241 32.3124 10.846 33.0883 11.1385 33.7735C11.4667 34.5422 12.2763 35 13.3022 35C14.3571 35 16.2532 34.5719 18.0854 34.1582C19.5431 33.8289 20.9204 33.518 21.4996 33.518C22.0789 33.518 23.4562 33.8289 24.9139 34.1582C26.7469 34.5719 28.6422 35 29.6971 35C30.723 35 31.5326 34.5413 31.8608 33.7735C32.1542 33.0883 31.9768 32.3124 31.3951 31.7501ZM19.1072 15.152C19.0782 15.0684 19.0127 15.001 18.9274 14.968C18.668 14.8676 18.4045 14.4789 18.4045 13.9294C18.4045 13.3824 18.6605 13.0146 18.8984 12.9037C18.9771 12.8668 19.0359 12.7993 19.06 12.7174C19.4437 11.4523 20.4232 10.6024 21.4996 10.6024C22.5761 10.6024 23.5556 11.4523 23.9385 12.7166C23.9625 12.7985 24.0222 12.866 24.1001 12.9029C24.3379 13.0138 24.594 13.3824 24.594 13.9286C24.594 14.4789 24.3313 14.8676 24.0711 14.9672C23.9857 15.0002 23.9203 15.0668 23.8913 15.1512C23.4761 16.3424 22.5363 17.1127 21.4988 17.1127C20.4613 17.1127 19.5224 16.3432 19.1072 15.152ZM14.895 21.5209C14.9845 20.1208 17.052 19.4083 18.1608 19.0252C18.3821 18.9489 18.5686 18.8838 18.7036 18.8284C19.3807 18.5465 19.8265 17.7649 20.0436 17.2966C20.4862 17.5633 20.9809 17.7151 21.4988 17.7151C22.0168 17.7151 22.5115 17.5625 22.954 17.2966C23.1711 17.7649 23.617 18.5465 24.294 18.8284C24.4291 18.8838 24.6164 18.9489 24.8368 19.0252C25.9464 19.4083 28.0132 20.1208 28.1018 21.5209C28.1988 22.9996 28.0256 27.5114 26.6417 28.1861C24.8965 29.0368 22.9043 29.3428 22.1377 29.0962C22.0151 29.0568 21.9314 29.0046 21.9032 28.95C21.8071 28.7645 21.8353 28.689 21.8444 28.6649C21.9223 28.4544 22.4386 28.2287 23.036 27.9676C23.3592 27.8263 23.7263 27.6664 24.1249 27.4688L24.3213 27.3716C25.4086 26.8391 26.0641 26.5178 26.0641 24.68V23.157C26.0641 22.9908 25.9249 22.8558 25.7533 22.8558C25.5818 22.8558 25.4426 22.9908 25.4426 23.157V24.68C25.4426 26.1475 25.0614 26.3347 24.0429 26.8335L23.8424 26.9323C23.4537 27.125 23.0965 27.2809 22.7816 27.4182C22.1999 27.6729 21.7648 27.868 21.4996 28.1227C21.2345 27.868 20.7994 27.6729 20.216 27.4182C19.9011 27.2809 19.5431 27.125 19.1553 26.9323L18.9547 26.8335C17.9363 26.3347 17.5551 26.1475 17.5551 24.68V23.157C17.5551 22.9908 17.4158 22.8558 17.2443 22.8558C17.0728 22.8558 16.9335 22.9908 16.9335 23.157V24.68C16.9335 26.5178 17.589 26.8391 18.6763 27.3716L18.8727 27.4688C19.2713 27.6664 19.6392 27.8263 19.9616 27.9676C20.5599 28.2287 21.0762 28.4544 21.1533 28.6649C21.1624 28.6898 21.1905 28.7653 21.0944 28.95C21.0662 29.0046 20.9825 29.0568 20.8599 29.0962C20.0934 29.342 18.1012 29.036 16.3559 28.1861C14.972 27.5114 14.7988 23.0004 14.895 21.5209ZM31.2873 33.5429C31.0595 34.0787 30.4653 34.3976 29.6979 34.3976C28.7134 34.3976 26.7701 33.959 25.0547 33.571C23.4968 33.2192 22.151 32.9156 21.4996 32.9156C20.8483 32.9156 19.5025 33.2192 17.9445 33.571C16.23 33.9582 14.2859 34.3976 13.3014 34.3976C12.534 34.3976 11.9398 34.0787 11.7119 33.5429C11.5139 33.0803 11.6374 32.5694 12.0418 32.1766C12.6583 31.579 14.8776 30.1966 17.3098 29.2271C18.3307 29.5749 19.384 29.7781 20.1911 29.7781C20.5292 29.7781 20.8243 29.7428 21.0546 29.6689C21.2427 29.6087 21.3878 29.5211 21.4988 29.4135C21.6099 29.5219 21.7557 29.6087 21.943 29.6689C22.1742 29.7428 22.4684 29.7781 22.8065 29.7781C23.6136 29.7781 24.6661 29.5749 25.6879 29.2263C28.1209 30.1966 30.3393 31.5782 30.9559 32.1758C31.3611 32.5686 31.4846 33.0795 31.2873 33.5429Z" fill="white"/>
</svg>
