<svg width="34" height="24" viewBox="0 0 34 24" fill="none" xmlns="http://www.w3.org/2000/svg">
<path d="M2.19998 0C1.31634 0 0.599976 0.716316 0.599976 1.6C0.599976 2.48368 1.31634 3.2 2.19998 3.2H31.8C32.6836 3.2 33.4 2.48368 33.4 1.6C33.4 0.716316 32.6836 0 31.8 0H2.19998ZM2.19998 10.4C1.31634 10.4 0.599976 11.1163 0.599976 12C0.599976 12.8837 1.31634 13.6 2.19998 13.6H31.8C32.6836 13.6 33.4 12.8837 33.4 12C33.4 11.1163 32.6836 10.4 31.8 10.4H2.19998ZM2.19998 20.8C1.31634 20.8 0.599976 21.5163 0.599976 22.4C0.599976 23.2837 1.31634 24 2.19998 24H31.8C32.6836 24 33.4 23.2837 33.4 22.4C33.4 21.5163 32.6836 20.8 31.8 20.8H2.19998Z" fill="black"/>
</svg>
