<svg width="45" height="45" viewBox="0 0 45 45" fill="none" xmlns="http://www.w3.org/2000/svg">
<path fill-rule="evenodd" clip-rule="evenodd" d="M22.8513 0.0687746C28.6702 0.375245 34.2719 2.37919 38.4095 6.54393C42.5648 10.7265 44.7572 16.4016 44.9751 22.3377C45.2023 28.5243 43.9083 34.9583 39.6144 39.3546C35.3062 43.7656 28.9684 45.1399 22.8513 44.989C16.8989 44.8422 11.1408 42.7728 6.88338 38.5473C2.57776 34.2741 0.262775 28.4458 0.0286235 22.3377C-0.21574 15.9633 1.05967 9.23611 5.59028 4.81542C10.058 0.456107 16.6627 -0.257162 22.8513 0.0687746Z" fill="#145EEB"/>
<path d="M13.1695 15.0508C13.2144 15.0508 13.2576 15.033 13.2893 15.0012C13.3211 14.9694 13.339 14.9263 13.339 14.8814V12.339H15.8814C15.9263 12.339 15.9694 12.3211 16.0012 12.2893C16.033 12.2576 16.0508 12.2144 16.0508 12.1695C16.0508 12.1245 16.033 12.0814 16.0012 12.0496C15.9694 12.0179 15.9263 12 15.8814 12H13.1695C13.1245 12 13.0814 12.0179 13.0496 12.0496C13.0179 12.0814 13 12.1245 13 12.1695V14.8814C13 14.9263 13.0179 14.9694 13.0496 15.0012C13.0814 15.033 13.1245 15.0508 13.1695 15.0508Z" fill="white"/>
<path d="M15.8814 31.661H13.339V29.1186C13.339 29.0737 13.3211 29.0306 13.2893 28.9988C13.2576 28.967 13.2144 28.9492 13.1695 28.9492C13.1245 28.9492 13.0814 28.967 13.0496 28.9988C13.0179 29.0306 13 29.0737 13 29.1186V31.8305C13 31.8755 13.0179 31.9186 13.0496 31.9504C13.0814 31.9821 13.1245 32 13.1695 32H15.8814C15.9263 32 15.9694 31.9821 16.0012 31.9504C16.033 31.9186 16.0508 31.8755 16.0508 31.8305C16.0508 31.7856 16.033 31.7425 16.0012 31.7107C15.9694 31.6789 15.9263 31.661 15.8814 31.661Z" fill="white"/>
<path d="M32.8305 28.9492C32.7856 28.9492 32.7425 28.967 32.7107 28.9988C32.6789 29.0306 32.661 29.0737 32.661 29.1186V31.661H30.1186C30.0737 31.661 30.0306 31.6789 29.9988 31.7107C29.967 31.7425 29.9492 31.7856 29.9492 31.8305C29.9492 31.8755 29.967 31.9186 29.9988 31.9504C30.0306 31.9821 30.0737 32 30.1186 32H32.8305C32.8755 32 32.9186 31.9821 32.9504 31.9504C32.9821 31.9186 33 31.8755 33 31.8305V29.1186C33 29.0737 32.9821 29.0306 32.9504 28.9988C32.9186 28.967 32.8755 28.9492 32.8305 28.9492Z" fill="white"/>
<path d="M32.8305 12H30.1186C30.0737 12 30.0306 12.0179 29.9988 12.0496C29.967 12.0814 29.9492 12.1245 29.9492 12.1695C29.9492 12.2144 29.967 12.2576 29.9988 12.2893C30.0306 12.3211 30.0737 12.339 30.1186 12.339H32.661V14.8814C32.661 14.9263 32.6789 14.9694 32.7107 15.0012C32.7425 15.033 32.7856 15.0508 32.8305 15.0508C32.8755 15.0508 32.9186 15.033 32.9504 15.0012C32.9821 14.9694 33 14.9263 33 14.8814V12.1695C33 12.1245 32.9821 12.0814 32.9504 12.0496C32.9186 12.0179 32.8755 12 32.8305 12Z" fill="white"/>
<path d="M31.4746 30.6441C31.5682 30.6441 31.6441 30.5682 31.6441 30.4746C31.6441 30.381 31.5682 30.3051 31.4746 30.3051C31.381 30.3051 31.3051 30.381 31.3051 30.4746C31.3051 30.5682 31.381 30.6441 31.4746 30.6441Z" fill="white"/>
<path d="M30.1186 30.6441C30.2123 30.6441 30.2881 30.5682 30.2881 30.4746C30.2881 30.381 30.2123 30.3051 30.1186 30.3051C30.025 30.3051 29.9492 30.381 29.9492 30.4746C29.9492 30.5682 30.025 30.6441 30.1186 30.6441Z" fill="white"/>
<path d="M28.7627 30.6441C28.8563 30.6441 28.9322 30.5682 28.9322 30.4746C28.9322 30.381 28.8563 30.3051 28.7627 30.3051C28.6691 30.3051 28.5932 30.381 28.5932 30.4746C28.5932 30.5682 28.6691 30.6441 28.7627 30.6441Z" fill="white"/>
<path d="M17.2373 13.6949C17.3309 13.6949 17.4068 13.619 17.4068 13.5254C17.4068 13.4318 17.3309 13.3559 17.2373 13.3559C17.1437 13.3559 17.0678 13.4318 17.0678 13.5254C17.0678 13.619 17.1437 13.6949 17.2373 13.6949Z" fill="white"/>
<path d="M15.8813 13.6949C15.975 13.6949 16.0508 13.619 16.0508 13.5254C16.0508 13.4318 15.975 13.3559 15.8813 13.3559C15.7877 13.3559 15.7119 13.4318 15.7119 13.5254C15.7119 13.619 15.7877 13.6949 15.8813 13.6949Z" fill="white"/>
<path d="M14.5254 13.6949C14.6191 13.6949 14.6949 13.619 14.6949 13.5254C14.6949 13.4318 14.6191 13.3559 14.5254 13.3559C14.4318 13.3559 14.356 13.4318 14.356 13.5254C14.356 13.619 14.4318 13.6949 14.5254 13.6949Z" fill="white"/>
<path d="M29.1017 20.8136C29.0631 20.8148 29.0246 20.8187 28.9865 20.8251L27.5031 16.6217C27.6243 16.5493 27.7256 16.4478 27.7977 16.3264C27.8697 16.205 27.9103 16.0675 27.9157 15.9264C27.9211 15.7852 27.8912 15.645 27.8286 15.5184C27.766 15.3919 27.6728 15.2829 27.5574 15.2015C27.4421 15.1201 27.3082 15.0688 27.1679 15.0523C27.0277 15.0358 26.8856 15.0546 26.7544 15.107C26.6233 15.1594 26.5073 15.2437 26.4171 15.3523C26.3268 15.4609 26.2652 15.5903 26.2376 15.7288H23.1695V14.3556C23.4209 14.3131 23.6472 14.1777 23.8035 13.9762C23.9598 13.7748 24.0347 13.5219 24.0134 13.2678C23.9921 13.0137 23.8761 12.7769 23.6884 12.6043C23.5007 12.4317 23.255 12.3359 23 12.3359C22.745 12.3359 22.4993 12.4317 22.3117 12.6043C22.124 12.7769 22.008 13.0137 21.9866 13.2678C21.9653 13.5219 22.0402 13.7748 22.1965 13.9762C22.3528 14.1777 22.5791 14.3131 22.8305 14.3556V15.7288H19.7624C19.7349 15.5903 19.6732 15.4609 19.5829 15.3523C19.4927 15.2437 19.3767 15.1594 19.2456 15.107C19.1145 15.0546 18.9723 15.0358 18.8321 15.0523C18.6919 15.0688 18.558 15.1201 18.4426 15.2015C18.3272 15.2829 18.234 15.3919 18.1714 15.5184C18.1089 15.645 18.0789 15.7852 18.0843 15.9264C18.0897 16.0675 18.1303 16.205 18.2024 16.3264C18.2744 16.4478 18.3757 16.5493 18.497 16.6217L17.0136 20.8251C16.9755 20.8187 16.937 20.8148 16.8983 20.8136C16.691 20.8114 16.49 20.8846 16.3325 21.0195C16.1751 21.1544 16.0719 21.3418 16.0422 21.547C16.0124 21.7521 16.0581 21.9611 16.1708 22.1352C16.2835 22.3092 16.4555 22.4364 16.6548 22.4933C16.8542 22.5501 17.0674 22.5327 17.2549 22.4442C17.4424 22.3557 17.5915 22.2022 17.6744 22.0122C17.7573 21.8222 17.7684 21.6085 17.7058 21.4109C17.6431 21.2133 17.5108 21.0451 17.3336 20.9376L18.817 16.7342C18.8551 16.7407 18.8936 16.7445 18.9322 16.7458C19.1275 16.7457 19.3168 16.6782 19.4681 16.5547C19.6194 16.4312 19.7233 16.2592 19.7624 16.0678H22.8305V17.102C22.639 17.1409 22.4667 17.2449 22.343 17.3962C22.2193 17.5476 22.1517 17.7371 22.1517 17.9325C22.1517 18.128 22.2193 18.3175 22.343 18.4689C22.4667 18.6202 22.639 18.7242 22.8305 18.7631V20.2356L21.4329 21.6332C21.3337 21.5655 21.2213 21.5195 21.103 21.4985C20.9847 21.4775 20.8633 21.4819 20.7469 21.5114C20.6304 21.5409 20.5216 21.5947 20.4275 21.6695C20.3335 21.7442 20.2564 21.8381 20.2014 21.9449C20.1464 22.0517 20.1147 22.1689 20.1085 22.2889C20.1022 22.4089 20.1216 22.5288 20.1652 22.6407C20.2088 22.7526 20.2757 22.854 20.3615 22.9381C20.4473 23.0222 20.55 23.0871 20.6627 23.1285L20.256 25.5631C20.0563 25.5697 19.8655 25.647 19.7175 25.7812C19.5695 25.9153 19.4739 26.0976 19.4477 26.2957C19.4215 26.4937 19.4664 26.6946 19.5745 26.8626C19.6825 27.0306 19.8466 27.1549 20.0376 27.2132L19.578 29.9698C19.3681 29.9776 19.1686 30.0629 19.0181 30.2094C18.8676 30.3559 18.7769 30.553 18.7634 30.7626C18.75 30.9722 18.8149 31.1793 18.9455 31.3437C19.0761 31.5082 19.2631 31.6183 19.4703 31.6527C19.6774 31.6871 19.89 31.6434 20.0668 31.53C20.2435 31.4166 20.3719 31.2416 20.427 31.039C20.482 30.8363 20.4599 30.6205 20.3649 30.4332C20.2698 30.2459 20.1086 30.1006 19.9126 30.0254L20.3756 27.2458C20.5645 27.2265 20.7413 27.1441 20.8775 27.0119C21.0138 26.8797 21.1014 26.7054 21.1262 26.5172C21.1511 26.329 21.1117 26.1379 21.0145 25.9748C20.9173 25.8118 20.7679 25.6863 20.5905 25.6186L20.9973 23.1841C21.1476 23.1791 21.2938 23.134 21.4208 23.0536C21.5478 22.9732 21.6511 22.8604 21.7199 22.7267C21.7887 22.5931 21.8206 22.4435 21.8123 22.2934C21.804 22.1433 21.7557 21.9981 21.6726 21.8729L23 20.5448L24.3275 21.8722C24.2443 21.9974 24.196 22.1426 24.1877 22.2927C24.1794 22.4428 24.2113 22.5924 24.2801 22.7261C24.349 22.8597 24.4522 22.9726 24.5793 23.053C24.7063 23.1334 24.8525 23.1784 25.0027 23.1834L25.4095 25.618C25.2321 25.6856 25.0827 25.8111 24.9855 25.9741C24.8883 26.1372 24.8489 26.3283 24.8738 26.5165C24.8987 26.7047 24.9863 26.879 25.1225 27.0112C25.2587 27.1434 25.4356 27.2258 25.6244 27.2451L26.0875 30.0248C25.8914 30.0999 25.7302 30.2452 25.6352 30.4325C25.5401 30.6198 25.518 30.8357 25.5731 31.0383C25.6282 31.241 25.7565 31.416 25.9333 31.5293C26.11 31.6427 26.3226 31.6865 26.5298 31.652C26.7369 31.6176 26.9239 31.5075 27.0545 31.343C27.1851 31.1786 27.25 30.9715 27.2366 30.7619C27.2232 30.5523 27.1324 30.3552 26.9819 30.2087C26.8314 30.0623 26.6319 29.9769 26.4221 29.9692L25.9624 27.2125C26.1534 27.1542 26.3176 27.0299 26.4256 26.8619C26.5336 26.6939 26.5785 26.493 26.5523 26.295C26.5261 26.097 26.4305 25.9146 26.2825 25.7805C26.1345 25.6463 25.9437 25.5691 25.7441 25.5624L25.3373 23.1278C25.4501 23.0864 25.5527 23.0215 25.6385 22.9374C25.7243 22.8533 25.7912 22.7519 25.8348 22.64C25.8785 22.5281 25.8978 22.4082 25.8916 22.2882C25.8853 22.1683 25.8536 22.051 25.7986 21.9442C25.7436 21.8374 25.6665 21.7435 25.5725 21.6688C25.4785 21.5941 25.3696 21.5402 25.2532 21.5107C25.1367 21.4812 25.0153 21.4769 24.897 21.4979C24.7788 21.5189 24.6663 21.5648 24.5671 21.6325L23.1695 20.2349V18.7624C23.3611 18.7235 23.5333 18.6195 23.657 18.4682C23.7807 18.3168 23.8483 18.1274 23.8483 17.9319C23.8483 17.7364 23.7807 17.5469 23.657 17.3956C23.5333 17.2442 23.3611 17.1403 23.1695 17.1014V16.0678H26.2376C26.2767 16.2592 26.3807 16.4312 26.5319 16.5547C26.6832 16.6782 26.8725 16.7457 27.0678 16.7458C27.1064 16.7445 27.145 16.7407 27.1831 16.7342L28.6665 20.9376C28.4927 21.044 28.3634 21.2098 28.3025 21.4042C28.2415 21.5985 28.2531 21.8084 28.335 21.995C28.4168 22.1815 28.5635 22.3321 28.7479 22.4188C28.9322 22.5055 29.1417 22.5225 29.3376 22.4667C29.5335 22.4108 29.7026 22.2859 29.8135 22.115C29.9244 21.9442 29.9697 21.7389 29.9409 21.5372C29.9121 21.3355 29.8112 21.1511 29.657 21.0181C29.5027 20.885 29.3054 20.8124 29.1017 20.8136Z" fill="white"/>
</svg>
