<svg width="48" height="45" viewBox="0 0 48 45" fill="none" xmlns="http://www.w3.org/2000/svg">
<path fill-rule="evenodd" clip-rule="evenodd" d="M22.6102 0.0580262C28.9078 -0.268154 35.4277 0.708467 40.1564 4.84175C45.1474 9.20419 48.3447 15.6412 47.9703 22.2246C47.6111 28.5399 43.0171 33.507 38.2845 37.7529C33.8442 41.7365 28.5957 44.7361 22.6102 44.9766C16.3723 45.2273 9.98826 43.4755 5.61056 39.0659C1.26241 34.6862 -0.203808 28.3636 0.022318 22.2246C0.239639 16.3246 2.5737 10.7239 6.80756 6.56904C11.021 2.4342 16.6876 0.364784 22.6102 0.0580262Z" fill="#145EEB"/>
<path d="M33.4328 22.6683C33.4116 22.6683 33.3899 22.6683 33.3687 22.6683L30.7019 22.513C30.3779 22.4933 30.0713 22.3604 29.836 22.1376L28.229 20.6168C28.1613 20.549 28.1227 20.4576 28.1215 20.3619C28.1202 20.2663 28.1565 20.1739 28.2225 20.1044C28.2885 20.035 28.379 19.9939 28.4749 19.99C28.5708 19.986 28.6644 20.0195 28.7359 20.0833L30.3424 21.6037C30.4516 21.7068 30.5937 21.7681 30.7438 21.7769L33.4107 21.9322C33.6628 21.9464 33.9107 21.7199 33.9522 21.436C33.9633 21.3746 33.9615 21.3116 33.9469 21.2509C33.9323 21.1902 33.9052 21.1332 33.8674 21.0836C33.8367 21.0451 33.7983 21.0134 33.7545 20.9908C33.7107 20.9682 33.6627 20.955 33.6134 20.9522L31.5535 20.8051C31.2312 20.7819 30.9274 20.6462 30.6954 20.4219L29.223 18.9976C29.1528 18.9297 29.1125 18.8368 29.111 18.7393C29.1095 18.6418 29.1469 18.5477 29.215 18.4777C29.2831 18.4077 29.3762 18.3675 29.474 18.366C29.5718 18.3645 29.6662 18.4018 29.7364 18.4697L31.2088 19.894C31.317 19.9981 31.4588 20.0604 31.6088 20.07L33.6687 20.217C33.8189 20.2272 33.9652 20.2684 34.0985 20.338C34.2318 20.4076 34.3491 20.5041 34.4429 20.6214C34.5439 20.75 34.6172 20.898 34.6585 21.056C34.6998 21.2141 34.7082 21.3789 34.683 21.5403C34.59 22.1762 34.037 22.6683 33.4328 22.6683Z" fill="white"/>
<path d="M28.2981 31.9999C28.2723 31.9999 28.2461 31.9999 28.2203 31.9999C27.5267 31.9609 26.9456 31.3966 26.9248 30.7415L26.7926 26.5378C26.7892 26.4331 26.7637 26.3302 26.7176 26.2359C26.6716 26.1417 26.606 26.0583 26.5253 25.9911L24.0335 23.9235C24.0216 23.9134 24.0087 23.9042 23.9958 23.8945C22.9538 23.1341 23.334 21.7057 23.4755 21.2857C23.5169 21.1634 23.5744 21.047 23.6464 20.9397L24.564 19.5646C24.6388 19.4528 24.6818 19.3228 24.6883 19.1886C24.6949 19.0543 24.6648 18.9208 24.6012 18.8023C24.5376 18.6837 24.443 18.5847 24.3273 18.5156C24.2117 18.4465 24.0794 18.41 23.9446 18.4099H23.5805C23.3902 18.4097 23.2071 18.4824 23.069 18.613L21.3681 20.2166C20.9372 20.6301 20.216 20.6154 19.7643 20.1803C19.653 20.0739 19.5642 19.9465 19.5031 19.8054C19.442 19.6643 19.4099 19.5124 19.4086 19.3587C19.408 19.2169 19.4362 19.0764 19.4917 18.9458C19.5471 18.8151 19.6286 18.6971 19.7312 18.5988L22.145 16.2808C22.4203 16.0153 22.7883 15.867 23.1713 15.8673L27.0096 15.8622C27.2698 15.8623 27.5254 15.9306 27.7507 16.0603L29.3009 16.953C29.5727 17.1066 29.7874 17.3436 29.9129 17.6289C30.0424 17.933 30.1267 18.4058 29.7903 18.9305C29.4539 19.4552 28.3212 21.1516 27.6755 22.116C27.5789 22.2602 27.536 22.4337 27.5543 22.6062C27.5727 22.7787 27.6511 22.9394 27.776 23.0602L29.0143 24.2589C29.1549 24.3956 29.2671 24.5586 29.3443 24.7386C29.4216 24.9186 29.4624 25.1121 29.4645 25.3079L29.5055 30.8265C29.5077 30.9835 29.4772 31.1393 29.4159 31.284C29.3547 31.4287 29.2641 31.5592 29.1498 31.6673C28.9199 31.8841 28.6146 32.0034 28.2981 31.9999ZM23.5805 17.6766H23.9446C24.2128 17.6768 24.4759 17.7495 24.7059 17.887C24.9359 18.0245 25.1242 18.2216 25.2507 18.4574C25.3771 18.6932 25.4371 18.9588 25.4241 19.2259C25.4111 19.4929 25.3257 19.7515 25.1769 19.974L24.2598 21.3432C24.2237 21.3963 24.195 21.4541 24.1746 21.515C24.0446 21.8996 23.8105 22.8433 24.4313 23.2963C24.4561 23.3147 24.4815 23.3335 24.5054 23.3538L26.9972 25.4213C27.158 25.555 27.2886 25.7211 27.3804 25.9087C27.4722 26.0963 27.5232 26.3012 27.5299 26.5098L27.6617 30.7134C27.6705 30.9923 27.9451 31.2432 28.2608 31.2611C28.3294 31.2671 28.3985 31.2589 28.4638 31.237C28.529 31.215 28.5891 31.1799 28.6401 31.1338C28.6814 31.0951 28.714 31.0481 28.7359 30.9959C28.7578 30.9437 28.7685 30.8876 28.7673 30.831L28.7263 25.3124C28.7259 25.2141 28.7057 25.1168 28.6669 25.0264C28.6281 24.9359 28.5715 24.8541 28.5004 24.7859L27.2631 23.5899C27.0146 23.3492 26.8586 23.0294 26.822 22.6859C26.7855 22.3425 26.8708 21.9971 27.0631 21.7098C27.7083 20.7477 28.8373 19.0564 29.17 18.5372C29.3028 18.33 29.3244 18.1278 29.2355 17.9192C29.1726 17.7805 29.0666 17.6657 28.9332 17.5916L27.3829 16.6994C27.2698 16.634 27.1413 16.5996 27.0106 16.5997L23.1727 16.6047C22.9802 16.6042 22.7951 16.6787 22.657 16.8124L20.2432 19.1299C20.2123 19.1597 20.1878 19.1954 20.1713 19.2349C20.1547 19.2744 20.1464 19.3168 20.1468 19.3597C20.148 19.4146 20.1602 19.4687 20.1826 19.5188C20.205 19.569 20.2371 19.6142 20.2773 19.6519C20.4445 19.8127 20.7114 19.8278 20.8602 19.685L22.5653 18.0768C22.8399 17.8189 23.2032 17.6756 23.5805 17.6766Z" fill="white"/>
<path d="M18.2519 27.5693C17.6726 27.5693 17.2639 27.137 17.1523 26.3986C17.1247 26.2284 17.1328 26.0542 17.176 25.8872C17.2193 25.7202 17.2967 25.5639 17.4035 25.4282C17.5012 25.3069 17.6234 25.2074 17.7622 25.1362C17.901 25.0649 18.0532 25.0236 18.209 25.0147L21.54 24.8025C21.6419 24.7958 21.7415 24.7686 21.8326 24.7225C21.9237 24.6764 22.0044 24.6123 22.0699 24.5341L23.5013 22.8208C23.5323 22.7837 23.5703 22.753 23.6132 22.7306C23.656 22.7081 23.7029 22.6943 23.7511 22.6899C23.7994 22.6855 23.848 22.6906 23.8942 22.705C23.9405 22.7193 23.9834 22.7426 24.0207 22.7735C24.0579 22.8044 24.0886 22.8423 24.1112 22.885C24.1337 22.9278 24.1475 22.9745 24.152 23.0226C24.1564 23.0707 24.1512 23.1191 24.1368 23.1652C24.1225 23.2114 24.0991 23.2542 24.0681 23.2913L22.6363 25.006C22.5065 25.1608 22.3465 25.2877 22.1661 25.3791C21.9856 25.4705 21.7885 25.5244 21.5865 25.5376L18.2551 25.7471C18.2015 25.7501 18.1492 25.7644 18.1015 25.789C18.0538 25.8136 18.012 25.8481 17.9786 25.89C17.936 25.9465 17.9056 26.011 17.8891 26.0797C17.8726 26.1484 17.8704 26.2197 17.8828 26.2893C17.939 26.6628 18.0722 26.8461 18.2809 26.8333L22.7114 26.5709C22.8139 26.5648 22.9141 26.5379 23.0058 26.4917C23.0975 26.4456 23.1788 26.3812 23.2446 26.3026L24.9774 24.2291C25.008 24.1909 25.046 24.1592 25.089 24.1359C25.1321 24.1125 25.1794 24.098 25.2282 24.0931C25.2769 24.0881 25.3262 24.093 25.3731 24.1073C25.42 24.1216 25.4635 24.1451 25.5012 24.1764C25.5388 24.2077 25.5699 24.2461 25.5924 24.2895C25.615 24.3329 25.6287 24.3803 25.6326 24.429C25.6366 24.4778 25.6308 24.5268 25.6155 24.5732C25.6002 24.6197 25.5758 24.6626 25.5437 24.6995L23.811 26.7731C23.6805 26.9287 23.5196 27.0562 23.3381 27.1476C23.1566 27.2391 22.9582 27.2927 22.7552 27.3052L18.3247 27.5675C18.2994 27.5689 18.2754 27.5693 18.2519 27.5693Z" fill="white"/>
<path d="M30.4364 16.3667C29.9545 16.3658 29.4864 16.2064 29.1045 15.9132C28.7227 15.6201 28.4485 15.2096 28.3245 14.7453C28.2005 14.281 28.2336 13.7889 28.4186 13.3452C28.6036 12.9015 28.9302 12.5311 29.3478 12.2913C29.7654 12.0515 30.2507 11.9558 30.7284 12.0189C31.2061 12.0821 31.6497 12.3006 31.9902 12.6405C32.3307 12.9805 32.5493 13.423 32.612 13.8994C32.6746 14.3758 32.578 14.8595 32.3369 15.2755C32.1453 15.6087 31.8684 15.8853 31.5345 16.077C31.2006 16.2687 30.8217 16.3687 30.4364 16.3667ZM30.4429 12.737C30.0904 12.7365 29.7497 12.8638 29.4844 13.0952C29.2191 13.3266 29.0472 13.6463 29.0009 13.9947C28.9545 14.3431 29.0368 14.6964 29.2324 14.9888C29.428 15.2812 29.7235 15.4927 30.064 15.5838C30.4044 15.675 30.7665 15.6397 31.0827 15.4843C31.3989 15.329 31.6477 15.0644 31.7827 14.7397C31.9176 14.415 31.9296 14.0525 31.8163 13.7197C31.703 13.3869 31.4722 13.1065 31.1668 12.9309C30.9468 12.8036 30.6972 12.7361 30.4429 12.7351V12.737Z" fill="white"/>
<path d="M19.7514 14.7765H13.59C13.4923 14.7765 13.3985 14.7378 13.3294 14.6689C13.2602 14.5999 13.2214 14.5065 13.2214 14.409C13.2214 14.3115 13.2602 14.218 13.3294 14.1491C13.3985 14.0801 13.4923 14.0414 13.59 14.0414H19.7514C19.8492 14.0414 19.943 14.0801 20.0121 14.1491C20.0813 14.218 20.1201 14.3115 20.1201 14.409C20.1201 14.5065 20.0813 14.5999 20.0121 14.6689C19.943 14.7378 19.8492 14.7765 19.7514 14.7765Z" fill="white"/>
<path d="M17.9477 18.5717H13.59C13.4923 18.5717 13.3985 18.533 13.3294 18.464C13.2602 18.3951 13.2214 18.3016 13.2214 18.2041C13.2214 18.1066 13.2602 18.0131 13.3294 17.9442C13.3985 17.8753 13.4923 17.8365 13.59 17.8365H17.9477C18.0455 17.8365 18.1393 17.8753 18.2084 17.9442C18.2776 18.0131 18.3164 18.1066 18.3164 18.2041C18.3164 18.3016 18.2776 18.3951 18.2084 18.464C18.1393 18.533 18.0455 18.5717 17.9477 18.5717Z" fill="white"/>
<path d="M19.7514 22.3673H13.59C13.4923 22.3673 13.3985 22.3286 13.3294 22.2596C13.2602 22.1907 13.2214 22.0972 13.2214 21.9997C13.2214 21.9022 13.2602 21.8087 13.3294 21.7398C13.3985 21.6709 13.4923 21.6322 13.59 21.6322H19.7514C19.8492 21.6322 19.943 21.6709 20.0121 21.7398C20.0813 21.8087 20.1201 21.9022 20.1201 21.9997C20.1201 22.0972 20.0813 22.1907 20.0121 22.2596C19.943 22.3286 19.8492 22.3673 19.7514 22.3673Z" fill="white"/>
<path d="M15.6933 26.1629H13.59C13.4923 26.1629 13.3985 26.1242 13.3294 26.0553C13.2602 25.9863 13.2214 25.8928 13.2214 25.7953C13.2214 25.6979 13.2602 25.6044 13.3294 25.5354C13.3985 25.4665 13.4923 25.4278 13.59 25.4278H15.6933C15.7911 25.4278 15.8849 25.4665 15.954 25.5354C16.0231 25.6044 16.062 25.6979 16.062 25.7953C16.062 25.8928 16.0231 25.9863 15.954 26.0553C15.8849 26.1242 15.7911 26.1629 15.6933 26.1629Z" fill="white"/>
<path d="M17.9477 29.9581H13.59C13.4923 29.9581 13.3985 29.9193 13.3294 29.8504C13.2602 29.7815 13.2214 29.688 13.2214 29.5905C13.2214 29.493 13.2602 29.3995 13.3294 29.3306C13.3985 29.2617 13.4923 29.2229 13.59 29.2229H17.9477C18.0455 29.2229 18.1393 29.2617 18.2084 29.3306C18.2776 29.3995 18.3164 29.493 18.3164 29.5905C18.3164 29.688 18.2776 29.7815 18.2084 29.8504C18.1393 29.9193 18.0455 29.9581 17.9477 29.9581Z" fill="white"/>
</svg>
