<svg width="16" height="20" viewBox="0 0 16 20" fill="none" xmlns="http://www.w3.org/2000/svg">
<path d="M15.8082 2.25141C15.693 2.17636 15.5779 2.17636 15.4628 2.21388C14.5036 2.62664 13.506 2.32645 12.9305 1.57599C12.6619 1.23827 12.5084 0.787992 12.5084 0.375235C12.5084 0.262664 12.47 0.187617 12.3933 0.11257C12.3165 0.0375233 12.2398 0 12.1247 0H8.21103C7.98081 0 7.82734 0.150094 7.82734 0.375235V13.6961C7.82734 13.7336 7.82734 13.7336 7.82734 13.7711C7.7506 14.4465 7.21343 14.9343 6.52278 14.9343C5.79376 14.9343 5.17986 14.334 5.17986 13.621C5.17986 12.9456 5.67866 12.4203 6.3693 12.3452C6.56115 12.3077 6.71463 12.1576 6.71463 11.97V7.61726C6.71463 7.39212 6.56115 7.24203 6.33094 7.24203C6.33094 7.24203 6.29257 7.24203 6.2542 7.24203C2.72422 7.39212 0 10.1689 0 13.621C0 17.1482 2.91607 20 6.52278 20C9.89928 20 12.7386 17.4484 13.0072 14.1839C13.0456 14.1463 13.0456 14.0713 13.0456 14.0338V6.79174C13.8897 6.97936 14.7722 7.05441 15.693 6.90431C15.8849 6.86679 16 6.7167 16 6.52908V2.55159C16 2.43902 15.9233 2.32645 15.8082 2.25141ZM15.2326 6.22889C14.3501 6.30394 13.5444 6.22889 12.7386 5.96623C12.6235 5.92871 12.5084 5.96623 12.3933 6.00375C12.2782 6.0788 12.2398 6.19137 12.2398 6.30394V13.8837C12.2398 13.9212 12.2398 13.9587 12.2014 13.9962C12.0096 16.9231 9.47722 19.2495 6.48441 19.2495C3.29976 19.2495 0.729017 16.7355 0.729017 13.621C0.729017 10.6942 2.95444 8.29268 5.90887 8.03002V11.6698C5.02638 11.9325 4.3741 12.7204 4.3741 13.621C4.3741 14.7467 5.33333 15.6848 6.48441 15.6848C7.52038 15.6848 8.40288 14.9343 8.55635 13.9587C8.59472 13.9212 8.59472 13.8462 8.59472 13.8086V0.750469H11.7794C11.8561 1.23827 12.048 1.65103 12.3165 2.02627C12.9688 2.88931 14.1199 3.33959 15.2326 3.07692V6.22889Z" fill="black"/>
</svg>
