<svg width="26" height="20" viewBox="0 0 26 20" fill="none" xmlns="http://www.w3.org/2000/svg">
<path d="M26 0C24.986 0.578714 22.9515 1.36741 21.7555 1.5949C21.7204 1.60365 21.6918 1.6149 21.658 1.62365C20.6011 0.621211 19.1529 0 17.55 0C14.3195 0 11.7 2.51859 11.7 5.62465C11.7 5.78839 11.6857 6.08962 11.7 6.24961C7.3411 6.24961 4.0235 4.05475 1.6445 1.24992C1.3858 1.87488 1.2727 2.86232 1.2727 3.78976C1.2727 5.5409 2.6962 7.2608 4.9127 8.32698C4.5045 8.42822 4.0547 8.50072 3.5867 8.50072C2.8314 8.50072 2.0319 8.30948 1.3 7.72952C1.3 7.75077 1.3 7.77076 1.3 7.79326C1.3 10.2406 4.0014 11.9068 6.4038 12.3705C5.9163 12.6467 4.9335 12.6742 4.4538 12.6742C4.1158 12.6742 2.9198 12.5255 2.6 12.468C3.2682 14.4741 5.6784 15.6015 7.9755 15.6415C6.1789 16.9964 4.9322 17.4989 1.2532 17.4989H0C2.3244 18.9313 5.2845 20 8.2511 20C17.9101 20 23.4 12.9217 23.4 6.24961C23.4 6.14212 23.3974 5.91713 23.3935 5.69089C23.3935 5.6684 23.4 5.64715 23.4 5.62465C23.4 5.5909 23.3896 5.5584 23.3896 5.52465C23.3857 5.35466 23.3818 5.19593 23.3779 5.11343C24.4049 4.40098 25.2954 3.51228 26 2.49984C25.0575 2.90232 24.0461 3.1723 22.984 3.29479C24.0682 2.66983 25.6087 1.17993 26 0Z" fill="black"/>
</svg>
