<svg width="26" height="26" viewBox="0 0 52 52" fill="none" xmlns="http://www.w3.org/2000/svg">
<path fill-rule="evenodd" clip-rule="evenodd" d="M49.6855 18.722C49.6438 19.7899 49.2574 20.8159 48.5838 21.6472C47.9101 22.4785 46.9853 23.0708 45.9469 23.3358V24.0039C45.9369 24.5165 45.7256 25.0047 45.3584 25.3637C44.9913 25.7227 44.4976 25.9238 43.9834 25.9238C43.4691 25.9238 42.9754 25.7227 42.6083 25.3637C42.2411 25.0047 42.0298 24.5165 42.0198 24.0039V23.3165C41.0778 23.0814 40.2253 22.5766 39.5673 21.8644C38.9094 21.1522 38.4747 20.2637 38.3169 19.3084C38.2577 18.7927 38.4063 18.2747 38.7301 17.8683C39.054 17.4619 39.5265 17.2004 40.0437 17.1413C40.5609 17.0823 41.0804 17.2305 41.488 17.5534C41.8956 17.8762 42.1579 18.3473 42.2171 18.863C42.2439 19.1102 42.8797 19.6914 43.9837 19.6914C45.0476 19.6914 45.7429 19.2757 45.7615 18.6329C45.7734 18.0161 45.1466 17.5878 44.1661 17.5425C44.082 17.5381 43.9986 17.5373 43.9175 17.5358C43.7284 17.5314 43.5125 17.5277 43.2579 17.5047C39.846 17.1796 38.1732 14.6522 38.2871 12.3222C38.357 11.277 38.7552 10.2803 39.4252 9.47348C40.0952 8.66663 41.003 8.0906 42.0198 7.82711V7.15908C42.0298 6.64646 42.2411 6.15821 42.6083 5.79922C42.9754 5.44022 43.4691 5.23912 43.9834 5.23912C44.4976 5.23912 44.9913 5.44022 45.3584 5.79922C45.7256 6.15821 45.9369 6.64646 45.9469 7.15908V7.84938C46.8821 8.08399 47.7291 8.58389 48.3852 9.28855C49.0414 9.99322 49.4785 10.8724 49.6439 11.8197C49.6755 12.0747 49.6564 12.3333 49.5878 12.5809C49.5192 12.8285 49.4023 13.0602 49.2439 13.2628C49.0854 13.4654 48.8885 13.6348 48.6644 13.7615C48.4402 13.8882 48.1933 13.9697 47.9376 14.0012C47.6818 14.0327 47.4224 14.0137 47.1741 13.9453C46.9257 13.8769 46.6934 13.7604 46.4902 13.6024C46.0799 13.2833 45.8135 12.8148 45.7496 12.3C45.7191 12.0535 45.0796 11.4738 43.9837 11.4738C42.934 11.4738 42.2387 11.8813 42.2082 12.513C42.1814 13.0957 42.736 13.5269 43.6294 13.6115C43.7343 13.6219 43.8453 13.6234 43.986 13.6264C44.1058 13.6264 44.2234 13.6308 44.3463 13.636C47.9256 13.8023 49.7399 16.323 49.6855 18.7286V18.722ZM43.9837 27.2438C46.2978 27.244 48.5599 26.5599 50.4841 25.2782C52.4082 23.9965 53.9079 22.1747 54.7936 20.0431C55.6792 17.9116 55.9111 15.5661 55.4597 13.3032C55.0083 11.0403 53.8941 8.96164 52.2578 7.33014C50.6216 5.69864 48.5369 4.58755 46.2673 4.13738C43.9977 3.68721 41.6452 3.91818 39.5073 4.80108C37.3693 5.68398 35.542 7.17915 34.2564 9.09752C32.9707 11.0159 32.2845 13.2713 32.2845 15.5785C32.2883 18.6711 33.522 21.6359 35.7152 23.8227C37.9084 26.0096 40.882 27.2399 43.9837 27.2438ZM43.9837 0.00296882C40.8931 0.0029689 37.872 0.91677 35.3023 2.6288C32.7326 4.34084 30.7298 6.7742 29.5473 9.62115C28.3648 12.4681 28.0555 15.6008 28.6587 18.6229C29.262 21.6451 30.7505 24.4211 32.9362 26.5997C35.1218 28.7784 37.9063 30.2619 40.9376 30.8626C43.9689 31.4633 47.1108 31.1542 49.9659 29.9745C52.821 28.7948 55.2611 26.7974 56.9776 24.2349C58.6942 21.6724 59.6099 18.6599 59.6092 15.5785C59.6043 11.4482 57.9564 7.48849 55.0271 4.568C52.0978 1.64751 48.1263 0.0047145 43.9837 0V0.00296882ZM40.5413 51.3969L24.4171 48.7537C22.9471 48.4967 21.4342 48.8044 20.1826 49.6147L18.4703 50.6999L14.7175 41.6139L23.7255 37.0683C24.5017 36.6552 25.3587 36.4153 26.2372 36.365C27.1156 36.3148 27.9946 36.4555 28.8131 36.7774L39.1328 40.5829L39.1149 40.6193C38.9513 40.9404 38.6996 41.2085 38.3891 41.3925C38.0786 41.5765 37.7221 41.6687 37.361 41.6585L26.6177 41.6882C26.1037 41.6989 25.6145 41.9102 25.2551 42.2766C24.8957 42.6431 24.6949 43.1355 24.6956 43.648C24.6964 44.1606 24.8988 44.6524 25.2593 45.0177C25.6198 45.3831 26.1097 45.5929 26.6236 45.6021L37.3662 45.5709C38.4297 45.5762 39.4745 45.2924 40.3883 44.7501C41.3022 44.2077 42.0505 43.4273 42.5529 42.4928L43.1484 41.4076L43.1663 41.3757L60.2628 35.9394C60.59 35.7994 60.9446 35.7349 61.3002 35.7506C61.6558 35.7663 62.0033 35.8617 62.3168 36.0299L40.5413 51.3947V51.3969ZM10.4406 57.4834L16.0717 55.1728L10.1554 40.8472L4.52433 43.1586L10.4406 57.4834ZM65.792 33.6866L64.7452 32.9399C63.9282 32.3716 62.9855 32.0085 61.9974 31.8814C61.0094 31.7544 60.0052 31.8672 59.0702 32.2103L42.1605 37.5909C41.9891 37.4851 41.8073 37.397 41.6178 37.3281L30.171 33.1069C28.8451 32.602 27.427 32.3828 26.01 32.4638C24.593 32.5448 23.2093 32.9241 21.9499 33.5768L13.2174 37.9843L13.038 37.5478C12.94 37.3102 12.7959 37.0941 12.6141 36.912C12.4323 36.7299 12.2162 36.5852 11.9784 36.4864C11.7405 36.3875 11.4853 36.3364 11.2276 36.3359C10.9699 36.3354 10.7146 36.3855 10.4763 36.4835L1.21445 40.2846C0.733454 40.4824 0.350907 40.8626 0.150871 41.3415C-0.0491654 41.8204 -0.0503267 42.3589 0.147642 42.8387L7.558 60.7872C7.65617 61.0252 7.80045 61.2415 7.98256 61.4238C8.16468 61.6062 8.38107 61.7509 8.61934 61.8498C8.85762 61.9486 9.11311 61.9997 9.3712 62C9.62928 62.0003 9.8849 61.9499 10.1234 61.8516L19.3838 58.0512C19.622 57.953 19.8386 57.8089 20.021 57.6273C20.2034 57.4456 20.3481 57.2299 20.4469 56.9924C20.5457 56.7549 20.5966 56.5004 20.5967 56.2433C20.5968 55.9863 20.5462 55.7317 20.4476 55.4942L19.986 54.3808L22.2886 52.923C22.7268 52.6294 23.2636 52.5203 23.782 52.6194L40.7007 55.3932C40.8057 55.4104 40.912 55.4191 41.0185 55.4192C41.4246 55.4196 41.8206 55.2937 42.1516 55.0592L65.78 38.3807C66.1561 38.1153 66.463 37.764 66.6753 37.3563C66.8875 36.9485 66.9988 36.4961 67 36.0367C67.0012 35.5773 66.8921 35.1243 66.682 34.7155C66.4718 34.3067 66.1667 33.9539 65.792 33.6866Z" fill="black"/>
</svg>
